HIERARCHY
ROOT mixamorig:Hips
{
	OFFSET -0.000008 104.274872 1.554316
	CHANNELS 6 Xposition Yposition Zposition Xrotation Yrotation Zrotation
	JOINT mixamorig:Spine
	{
		OFFSET -0.000005 10.181595 0.131519
		CHANNELS 6 Xposition Yposition Zposition Xrotation Yrotation Zrotation
		JOINT mixamorig:Spine1
		{
			OFFSET -0.000000 9.893959 -1.470707
			CHANNELS 6 Xposition Yposition Zposition Xrotation Yrotation Zrotation
			JOINT mixamorig:Spine2
			{
				OFFSET -0.000000 9.220757 -1.370641
				CHANNELS 6 Xposition Yposition Zposition Xrotation Yrotation Zrotation
				JOINT mixamorig:Neck
				{
					OFFSET 0.000001 16.740417 -2.049036
					CHANNELS 6 Xposition Yposition Zposition Xrotation Yrotation Zrotation
					JOINT mixamorig:Head
					{
						OFFSET 0.000000 9.617874 1.685006
						CHANNELS 6 Xposition Yposition Zposition Xrotation Yrotation Zrotation
						JOINT mixamorig:HeadTop_End
						{
							OFFSET 0.000002 22.037354 7.501101
							CHANNELS 6 Xposition Yposition Zposition Xrotation Yrotation Zrotation
							End Site
							{
								OFFSET 0.000168 2310.654297 -282.823242
							}
						}
					}
				}
				JOINT mixamorig:RightShoulder
				{
					OFFSET -4.569970 11.014908 -2.160885
					CHANNELS 6 Xposition Yposition Zposition Xrotation Yrotation Zrotation
					JOINT mixamorig:RightArm
					{
						OFFSET -10.592851 -0.524811 -2.232101
						CHANNELS 6 Xposition Yposition Zposition Xrotation Yrotation Zrotation
						JOINT mixamorig:RightForeArm
						{
							OFFSET -27.841511 0.000031 -0.000004
							CHANNELS 6 Xposition Yposition Zposition Xrotation Yrotation Zrotation
							JOINT mixamorig:RightHand
							{
								OFFSET -28.328831 -0.000015 0.000015
								CHANNELS 6 Xposition Yposition Zposition Xrotation Yrotation Zrotation
								JOINT mixamorig:RightHandThumb1
								{
									OFFSET -2.464806 -1.573990 2.681852
									CHANNELS 6 Xposition Yposition Zposition Xrotation Yrotation Zrotation
									JOINT mixamorig:RightHandThumb2
									{
										OFFSET -3.215179 -1.872803 1.924282
										CHANNELS 6 Xposition Yposition Zposition Xrotation Yrotation Zrotation
										JOINT mixamorig:RightHandThumb3
										{
											OFFSET -2.654831 -1.527969 1.512609
											CHANNELS 6 Xposition Yposition Zposition Xrotation Yrotation Zrotation
											JOINT mixamorig:RightHandThumb4
											{
												OFFSET -2.018814 -1.152008 1.108052
												CHANNELS 6 Xposition Yposition Zposition Xrotation Yrotation Zrotation
												End Site
												{
													OFFSET -188.809540 -114.533607 132.431396
												}
											}
										}
									}
								}
								JOINT mixamorig:RightHandIndex1
								{
									OFFSET -9.108284 -0.517868 2.259835
									CHANNELS 6 Xposition Yposition Zposition Xrotation Yrotation Zrotation
									JOINT mixamorig:RightHandIndex2
									{
										OFFSET -3.699989 0.000000 0.001215
										CHANNELS 6 Xposition Yposition Zposition Xrotation Yrotation Zrotation
										JOINT mixamorig:RightHandIndex3
										{
											OFFSET -2.850006 0.000031 -0.000522
											CHANNELS 6 Xposition Yposition Zposition Xrotation Yrotation Zrotation
											JOINT mixamorig:RightHandIndex4
											{
												OFFSET -2.772186 -0.000015 -0.000020
												CHANNELS 6 Xposition Yposition Zposition Xrotation Yrotation Zrotation
												End Site
												{
													OFFSET -277.218445 0.000000 -0.050231
												}
											}
										}
									}
								}
								JOINT mixamorig:RightHandMiddle1
								{
									OFFSET -9.532516 -0.000031 -0.000023
									CHANNELS 6 Xposition Yposition Zposition Xrotation Yrotation Zrotation
									JOINT mixamorig:RightHandMiddle2
									{
										OFFSET -3.700005 -0.000015 0.003713
										CHANNELS 6 Xposition Yposition Zposition Xrotation Yrotation Zrotation
										JOINT mixamorig:RightHandMiddle3
										{
											OFFSET -2.949974 0.000015 -0.002054
											CHANNELS 6 Xposition Yposition Zposition Xrotation Yrotation Zrotation
											JOINT mixamorig:RightHandMiddle4
											{
												OFFSET -2.946640 0.000000 -0.000156
												CHANNELS 6 Xposition Yposition Zposition Xrotation Yrotation Zrotation
												End Site
												{
													OFFSET -294.664337 0.000000 -0.113670
												}
											}
										}
									}
								}
								JOINT mixamorig:RightHandRing1
								{
									OFFSET -9.103600 -0.043076 -1.865134
									CHANNELS 6 Xposition Yposition Zposition Xrotation Yrotation Zrotation
									JOINT mixamorig:RightHandRing2
									{
										OFFSET -3.379288 0.000000 -0.001055
										CHANNELS 6 Xposition Yposition Zposition Xrotation Yrotation Zrotation
										JOINT mixamorig:RightHandRing3
										{
											OFFSET -2.889687 -0.000015 0.000379
											CHANNELS 6 Xposition Yposition Zposition Xrotation Yrotation Zrotation
											JOINT mixamorig:RightHandRing4
											{
												OFFSET -2.638809 -0.000015 0.000941
												CHANNELS 6 Xposition Yposition Zposition Xrotation Yrotation Zrotation
												End Site
												{
													OFFSET -263.880371 0.000000 0.516020
												}
											}
										}
									}
								}
								JOINT mixamorig:RightHandPinky1
								{
									OFFSET -8.076683 -0.486710 -3.806280
									CHANNELS 6 Xposition Yposition Zposition Xrotation Yrotation Zrotation
									JOINT mixamorig:RightHandPinky2
									{
										OFFSET -3.600014 -0.000015 -0.003747
										CHANNELS 6 Xposition Yposition Zposition Xrotation Yrotation Zrotation
										JOINT mixamorig:RightHandPinky3
										{
											OFFSET -2.099983 0.000000 -0.005739
											CHANNELS 6 Xposition Yposition Zposition Xrotation Yrotation Zrotation
											JOINT mixamorig:RightHandPinky4
											{
												OFFSET -2.115768 -0.000031 -0.003680
												CHANNELS 6 Xposition Yposition Zposition Xrotation Yrotation Zrotation
												End Site
												{
													OFFSET -211.577087 0.000000 -0.350686
												}
											}
										}
									}
								}
							}
						}
					}
				}
				JOINT mixamorig:LeftShoulder
				{
					OFFSET 4.570447 11.014725 -2.160855
					CHANNELS 6 Xposition Yposition Zposition Xrotation Yrotation Zrotation
					JOINT mixamorig:LeftArm
					{
						OFFSET 10.592371 -0.524597 -2.232119
						CHANNELS 6 Xposition Yposition Zposition Xrotation Yrotation Zrotation
						JOINT mixamorig:LeftForeArm
						{
							OFFSET 27.841532 -0.000031 0.000026
							CHANNELS 6 Xposition Yposition Zposition Xrotation Yrotation Zrotation
							JOINT mixamorig:LeftHand
							{
								OFFSET 28.328846 -0.000061 0.000022
								CHANNELS 6 Xposition Yposition Zposition Xrotation Yrotation Zrotation
								JOINT mixamorig:LeftHandThumb1
								{
									OFFSET 2.466141 -1.576172 2.681732
									CHANNELS 6 Xposition Yposition Zposition Xrotation Yrotation Zrotation
									JOINT mixamorig:LeftHandThumb2
									{
										OFFSET 3.217812 -1.872070 1.916482
										CHANNELS 6 Xposition Yposition Zposition Xrotation Yrotation Zrotation
										JOINT mixamorig:LeftHandThumb3
										{
											OFFSET 2.656029 -1.528778 1.514513
											CHANNELS 6 Xposition Yposition Zposition Xrotation Yrotation Zrotation
											JOINT mixamorig:LeftHandThumb4
											{
												OFFSET 2.020889 -1.154053 1.115139
												CHANNELS 6 Xposition Yposition Zposition Xrotation Yrotation Zrotation
												End Site
												{
													OFFSET 190.885437 -115.081749 130.048782
												}
											}
										}
									}
								}
								JOINT mixamorig:LeftHandIndex1
								{
									OFFSET 9.109314 -0.518021 2.259871
									CHANNELS 6 Xposition Yposition Zposition Xrotation Yrotation Zrotation
									JOINT mixamorig:LeftHandIndex2
									{
										OFFSET 3.699989 0.000000 -0.000322
										CHANNELS 6 Xposition Yposition Zposition Xrotation Yrotation Zrotation
										JOINT mixamorig:LeftHandIndex3
										{
											OFFSET 2.850006 0.000000 0.000352
											CHANNELS 6 Xposition Yposition Zposition Xrotation Yrotation Zrotation
											JOINT mixamorig:LeftHandIndex4
											{
												OFFSET 2.774864 -0.000031 -0.000027
												CHANNELS 6 Xposition Yposition Zposition Xrotation Yrotation Zrotation
												End Site
												{
													OFFSET 277.486267 0.000000 -0.009857
												}
											}
										}
									}
								}
								JOINT mixamorig:LeftHandMiddle1
								{
									OFFSET 9.533394 0.000061 0.000044
									CHANNELS 6 Xposition Yposition Zposition Xrotation Yrotation Zrotation
									JOINT mixamorig:LeftHandMiddle2
									{
										OFFSET 3.699989 -0.000015 -0.000231
										CHANNELS 6 Xposition Yposition Zposition Xrotation Yrotation Zrotation
										JOINT mixamorig:LeftHandMiddle3
										{
											OFFSET 2.949997 -0.000015 -0.000059
											CHANNELS 6 Xposition Yposition Zposition Xrotation Yrotation Zrotation
											JOINT mixamorig:LeftHandMiddle4
											{
												OFFSET 2.952896 0.000031 0.000063
												CHANNELS 6 Xposition Yposition Zposition Xrotation Yrotation Zrotation
												End Site
												{
													OFFSET 295.289337 0.000000 0.022810
												}
											}
										}
									}
								}
								JOINT mixamorig:LeftHandRing1
								{
									OFFSET 9.104523 -0.042999 -1.865074
									CHANNELS 6 Xposition Yposition Zposition Xrotation Yrotation Zrotation
									JOINT mixamorig:LeftHandRing2
									{
										OFFSET 3.150009 -0.000031 0.000043
										CHANNELS 6 Xposition Yposition Zposition Xrotation Yrotation Zrotation
										JOINT mixamorig:LeftHandRing3
										{
											OFFSET 2.949982 -0.000015 0.000040
											CHANNELS 6 Xposition Yposition Zposition Xrotation Yrotation Zrotation
											JOINT mixamorig:LeftHandRing4
											{
												OFFSET 2.644348 0.000000 0.000057
												CHANNELS 6 Xposition Yposition Zposition Xrotation Yrotation Zrotation
												End Site
												{
													OFFSET 264.434631 0.000000 0.012105
												}
											}
										}
									}
								}
								JOINT mixamorig:LeftHandPinky1
								{
									OFFSET 8.077789 -0.486847 -3.806259
									CHANNELS 6 Xposition Yposition Zposition Xrotation Yrotation Zrotation
									JOINT mixamorig:LeftHandPinky2
									{
										OFFSET 3.599953 0.000031 0.014727
										CHANNELS 6 Xposition Yposition Zposition Xrotation Yrotation Zrotation
										JOINT mixamorig:LeftHandPinky3
										{
											OFFSET 2.100021 0.000015 0.007705
											CHANNELS 6 Xposition Yposition Zposition Xrotation Yrotation Zrotation
											JOINT mixamorig:LeftHandPinky4
											{
												OFFSET 2.125504 0.000031 0.007517
												CHANNELS 6 Xposition Yposition Zposition Xrotation Yrotation Zrotation
												End Site
												{
													OFFSET 212.550781 0.000000 0.625752
												}
											}
										}
									}
								}
							}
						}
					}
				}
			}
		}
	}
	JOINT mixamorig:RightUpLeg
	{
		OFFSET -8.207787 -6.751648 -1.599560
		CHANNELS 6 Xposition Yposition Zposition Xrotation Yrotation Zrotation
		JOINT mixamorig:RightLeg
		{
			OFFSET -0.000002 -44.370117 0.345942
			CHANNELS 6 Xposition Yposition Zposition Xrotation Yrotation Zrotation
			JOINT mixamorig:RightFoot
			{
				OFFSET 0.000003 -44.423679 -3.043532
				CHANNELS 6 Xposition Yposition Zposition Xrotation Yrotation Zrotation
				JOINT mixamorig:RightToeBase
				{
					OFFSET -0.000002 -8.728671 10.710558
					CHANNELS 6 Xposition Yposition Zposition Xrotation Yrotation Zrotation
					JOINT mixamorig:RightToe_End
					{
						OFFSET -0.000001 -0.000679 9.278119
						CHANNELS 6 Xposition Yposition Zposition Xrotation Yrotation Zrotation
						End Site
						{
							OFFSET 0.000000 -0.067690 927.812134
						}
					}
				}
			}
		}
	}
	JOINT mixamorig:LeftUpLeg
	{
		OFFSET 8.207793 -6.751686 -1.599556
		CHANNELS 6 Xposition Yposition Zposition Xrotation Yrotation Zrotation
		JOINT mixamorig:LeftLeg
		{
			OFFSET -0.000004 -44.370014 0.346954
			CHANNELS 6 Xposition Yposition Zposition Xrotation Yrotation Zrotation
			JOINT mixamorig:LeftFoot
			{
				OFFSET -0.000001 -44.423672 -3.044401
				CHANNELS 6 Xposition Yposition Zposition Xrotation Yrotation Zrotation
				JOINT mixamorig:LeftToeBase
				{
					OFFSET -0.000002 -8.728669 10.710558
					CHANNELS 6 Xposition Yposition Zposition Xrotation Yrotation Zrotation
					JOINT mixamorig:LeftToe_End
					{
						OFFSET -0.000003 -0.000679 9.278133
						CHANNELS 6 Xposition Yposition Zposition Xrotation Yrotation Zrotation
						End Site
						{
							OFFSET 0.000000 -0.068021 927.813477
						}
					}
				}
			}
		}
	}
}
MOTION
Frames: 3
Frame Time: 0.033333
0.000006 104.270477 1.554256 0.000010 0.000003 -0.000113 -0.000005 10.181587 0.131522 0.000001 -0.000003 0.000084 -0.000000 9.893967 -1.470711 0.000001 0.000000 -0.000000 -0.000000 9.220802 -1.370642 0.000000 -0.000000 -0.000000 0.000001 16.740433 -2.049030 0.000000 -0.000000 -0.000000 0.000000 9.617859 1.685014 0.000000 0.000000 0.000000 0.000002 22.037384 7.501101 0.000000 -0.000000 0.000000 -4.569968 11.014880 -2.160881 0.000008 0.000001 -0.000038 -10.592872 -0.524786 -2.231891 76.342165 33.725811 -26.805192 -27.841526 -0.000003 0.000551 -48.436372 105.664515 61.359735 -28.328798 0.000022 0.000032 -0.000323 -0.000043 0.000004 -2.464418 -1.573918 2.682391 -31.791208 -153.491672 23.287750 -3.215253 -1.872566 1.924641 153.135095 33.130010 15.006364 -2.654958 -1.527903 1.513084 147.458621 27.343875 -31.923768 -2.018828 -1.152008 1.108060 -0.000002 -0.000010 0.000002 -9.108377 -0.517576 2.260197 109.693145 17.331769 -24.490874 -3.700058 0.000324 0.001570 107.896724 12.656622 -17.293146 -2.850094 0.000370 -0.000202 107.941516 9.633774 -13.216637 -2.772161 0.000001 -0.000024 0.000000 -0.000002 -0.000001 -9.532587 0.000252 0.000294 102.591818 18.298867 -22.910597 -3.700058 0.000325 0.004001 101.882530 11.851086 -14.461268 -2.950046 0.000339 -0.001773 101.188870 10.145993 -12.325523 -2.946630 0.000001 -0.000153 -0.000000 -0.000001 -0.000001 -9.103689 -0.042769 -1.864836 97.675387 19.697880 -22.411065 -3.379333 0.000321 -0.000756 101.910746 11.131101 -13.723300 -2.889744 0.000360 0.000679 105.027559 7.041493 -9.232687 -2.638801 -0.000004 0.000945 -0.000001 -0.000001 -0.000000 -8.076758 -0.486427 -3.806051 78.483286 22.534078 -18.353656 -3.600067 0.000263 -0.003517 86.058874 13.168738 -11.948288 -2.100013 0.000317 -0.005486 89.138210 7.251594 -6.922648 -2.115782 -0.000052 -0.003679 -0.000000 0.000002 -0.000004 4.570446 11.014691 -2.160851 -0.000018 0.000010 -0.000021 10.592389 -0.524494 -2.232342 69.438517 -10.042350 6.968010 27.841820 0.000090 -0.000232 97.458521 -70.655855 77.849458 28.328808 -0.000029 0.000023 0.000023 -0.000089 0.000000 2.466103 -1.576163 2.681901 -22.741683 154.638871 -41.001120 3.217813 -1.871765 1.916366 162.586602 -30.023937 7.780496 2.656105 -1.528673 1.514483 139.094931 -27.810048 53.147228 2.020887 -1.154064 1.115142 -0.000001 0.000004 0.000004 9.109355 -0.517841 2.259731 90.749732 -16.419824 16.620516 3.700049 0.000172 -0.000472 89.027759 -14.747137 14.518604 2.850059 0.000204 0.000198 89.614029 -12.977836 12.890137 2.774887 -0.000029 -0.000024 -0.000003 -0.000001 0.000000 9.533447 0.000239 -0.000099 88.502887 -15.679522 15.271319 3.700059 0.000190 -0.000379 91.201187 -13.219300 13.494059 2.950062 0.000177 -0.000187 92.782745 -16.188112 16.985786 2.952867 -0.000014 0.000063 0.000004 -0.000002 -0.000001 9.104584 -0.042855 -1.865241 85.142611 -14.756448 13.569070 3.150049 0.000205 -0.000095 92.246308 -11.514586 11.973708 2.950039 0.000200 -0.000076 95.500135 -13.118251 14.430745 2.644323 0.000014 0.000055 0.000001 0.000001 0.000001 8.077829 -0.486733 -3.806410 74.084794 -16.469591 12.916401 3.600005 0.000195 0.014568 79.549629 -12.410455 10.765347 2.100042 0.000194 0.007537 84.362556 -11.974619 11.295395 2.125523 -0.000017 0.007512 0.000000 -0.000000 -0.000002 -8.207786 -6.751667 -1.599560 -0.077001 -0.000003 0.000080 -0.000002 -44.370110 0.345938 0.153719 -0.000000 -0.000000 0.000000 -44.423679 -3.043532 -0.076700 0.000000 -0.000002 -0.000006 -8.728667 10.710559 -0.000009 -0.000000 -0.000000 -0.000001 -0.000679 9.278123 0.000000 -0.000000 -0.000000 8.207792 -6.751710 -1.599556 -0.074518 -0.000003 0.000081 -0.000002 -44.370014 0.346960 0.148822 0.000002 0.000000 -0.000001 -44.423664 -3.044403 -0.074314 0.000000 -0.000002 -0.000004 -8.728671 10.710558 0.000007 -0.000000 -0.000000 0.000000 -0.000680 9.278137 -0.000000 0.000000 -0.000001 
0.000006 104.270477 1.554256 0.000010 0.000003 -0.000113 -0.000005 10.181587 0.131522 0.000001 -0.000003 0.000084 -0.000000 9.893967 -1.470711 0.000001 0.000000 -0.000000 -0.000000 9.220802 -1.370642 0.000000 -0.000000 -0.000000 0.000001 16.740433 -2.049030 0.000000 -0.000000 -0.000000 0.000000 9.617859 1.685014 0.000000 0.000000 0.000000 0.000002 22.037384 7.501101 0.000000 -0.000000 0.000000 -4.569968 11.014880 -2.160881 0.000008 0.000001 -0.000038 -10.592868 -0.524790 -2.231877 75.806842 35.956308 -28.357713 -27.841516 -0.000004 0.000555 -45.744413 104.557943 57.215132 -28.328819 0.000022 0.000027 -0.000322 -0.000046 0.000009 -2.464419 -1.573925 2.682358 -28.834596 -150.162160 27.071156 -3.215257 -1.872516 1.924626 150.872472 34.145724 25.702980 -2.654953 -1.527881 1.513066 147.751718 27.540878 -29.475056 -2.018823 -1.152001 1.108059 0.000002 -0.000005 0.000000 -9.108377 -0.517564 2.260191 111.244049 17.297017 -25.136887 -3.700063 0.000305 0.001567 108.856755 14.552966 -20.212181 -2.850095 0.000352 -0.000192 108.068496 12.068672 -16.575858 -2.772154 -0.000000 -0.000029 -0.000002 -0.000000 -0.000001 -9.532600 0.000254 0.000275 102.202334 17.899214 -22.266400 -3.700067 0.000319 0.004011 102.845676 11.618205 -14.419559 -2.950058 0.000349 -0.001760 104.300417 11.515927 -14.777978 -2.946615 0.000001 -0.000156 -0.000000 -0.000000 -0.000001 -9.103710 -0.042773 -1.864835 97.862827 19.840183 -22.645036 -3.379343 0.000329 -0.000758 101.701728 9.556230 -11.745822 -2.889762 0.000336 0.000669 106.670493 7.855618 -10.601429 -2.638813 -0.000026 0.000939 0.000001 -0.000001 0.000002 -8.076789 -0.486416 -3.806036 81.586753 24.469467 -21.058655 -3.600047 0.000278 -0.003521 86.148445 12.840802 -11.661092 -2.100052 0.000313 -0.005485 89.792098 7.599208 -7.347246 -2.115781 -0.000045 -0.003678 -0.000002 -0.000001 -0.000001 4.570446 11.014691 -2.160851 -0.000018 0.000010 -0.000021 10.592383 -0.524497 -2.232331 69.306312 -6.318915 4.370186 27.841820 0.000056 -0.000179 97.906520 -72.319976 80.015338 28.328833 -0.000029 0.000027 0.000020 -0.000089 -0.000000 2.466269 -1.576029 2.681829 9.623522 171.840347 -107.233765 3.217875 -1.871825 1.916421 167.706839 -21.361536 39.161368 2.656098 -1.528684 1.514503 139.537363 -27.395131 59.777071 2.020895 -1.154067 1.115148 -0.000001 0.000003 0.000004 9.109386 -0.517858 2.259753 91.680618 -20.177123 20.751747 3.700052 0.000189 -0.000472 91.029537 -11.969709 12.202129 2.850036 0.000219 0.000201 89.488305 -7.964848 7.893037 2.774877 -0.000030 -0.000026 0.000000 -0.000001 0.000001 9.533466 0.000203 -0.000075 90.173339 -20.063192 20.113533 3.700031 0.000194 -0.000371 92.570667 -9.968179 10.420575 2.950037 0.000213 -0.000212 93.297693 -8.790746 9.312591 2.952865 -0.000015 0.000067 -0.000001 0.000001 0.000000 9.104595 -0.042860 -1.865213 87.966963 -19.338663 18.678390 3.150047 0.000220 -0.000094 95.261407 -12.011330 13.160541 2.950024 0.000215 -0.000095 95.910664 -9.253257 10.257458 2.644303 0.000046 0.000055 -0.000001 -0.000000 -0.000000 8.077856 -0.486729 -3.806401 79.902688 -20.380578 17.639657 3.600024 0.000159 0.014585 78.931654 -17.458812 14.851806 2.100039 0.000175 0.007556 79.570440 -12.088078 10.481537 2.125509 -0.000018 0.007512 0.000000 -0.000000 -0.000002 -8.207786 -6.751667 -1.599560 -0.077001 -0.000003 0.000080 -0.000002 -44.370110 0.345938 0.153719 -0.000000 -0.000000 0.000000 -44.423679 -3.043532 -0.076700 0.000000 -0.000002 -0.000006 -8.728667 10.710559 -0.000009 -0.000000 -0.000000 -0.000001 -0.000679 9.278123 0.000000 -0.000000 -0.000000 8.207792 -6.751710 -1.599556 -0.074518 -0.000003 0.000081 -0.000002 -44.370014 0.346960 0.148822 0.000002 0.000000 -0.000001 -44.423664 -3.044403 -0.074314 0.000000 -0.000002 -0.000004 -8.728671 10.710558 0.000007 -0.000000 -0.000000 0.000000 -0.000680 9.278137 -0.000000 0.000000 -0.000001 
0.000006 104.270477 1.554256 0.000010 0.000003 -0.000113 -0.000005 10.181587 0.131522 0.000001 -0.000003 0.000084 -0.000000 9.893967 -1.470711 0.000001 0.000000 -0.000000 -0.000000 9.220802 -1.370642 0.000000 -0.000000 -0.000000 0.000001 16.740433 -2.049030 0.000000 -0.000000 -0.000000 0.000000 9.617859 1.685014 0.000000 0.000000 0.000000 0.000002 22.037384 7.501101 0.000000 -0.000000 0.000000 -4.569968 11.014880 -2.160881 0.000008 0.000001 -0.000038 -10.592856 -0.524803 -2.231836 75.718856 42.186704 -33.382509 -27.841513 0.000001 0.000554 -44.691509 102.289029 54.065544 -28.328840 0.000021 0.000022 -0.000322 -0.000043 0.000006 -2.464393 -1.573918 2.682363 -29.403520 -149.377508 25.566211 -3.215251 -1.872514 1.924631 149.478540 34.139160 28.754540 -2.654962 -1.527886 1.513061 147.175140 27.699527 -28.620813 -2.018830 -1.152004 1.108071 -0.000002 0.000002 0.000003 -9.108376 -0.517562 2.260178 110.437875 16.542633 -23.710957 -3.700088 0.000311 0.001579 108.692933 13.937365 -19.306793 -2.850086 0.000359 -0.000185 108.142037 11.821659 -16.260377 -2.772181 0.000001 -0.000024 -0.000004 -0.000003 0.000001 -9.532610 0.000261 0.000301 102.296563 17.644457 -21.990387 -3.700063 0.000323 0.004011 103.580406 11.873740 -14.930843 -2.950043 0.000337 -0.001770 105.560942 11.699084 -15.353738 -2.946626 0.000000 -0.000152 -0.000000 -0.000003 0.000001 -9.103701 -0.042766 -1.864824 98.632562 19.944125 -23.065964 -3.379329 0.000319 -0.000761 102.044297 9.971630 -12.328842 -2.889743 0.000353 0.000666 107.142568 8.129242 -11.062078 -2.638822 -0.000016 0.000948 -0.000000 -0.000002 -0.000001 -8.076782 -0.486416 -3.806024 82.266685 24.917259 -21.701803 -3.600078 0.000260 -0.003518 85.953307 13.229267 -11.982652 -2.100030 0.000313 -0.005473 89.636233 7.588930 -7.317153 -2.115765 -0.000028 -0.003678 0.000000 0.000000 -0.000005 4.570446 11.014691 -2.160851 -0.000018 0.000010 -0.000021 10.592424 -0.524480 -2.232389 68.563467 -23.641293 16.239091 27.841822 0.000045 -0.000186 99.455348 -75.791317 85.147925 28.328823 -0.000028 0.000021 0.000021 -0.000090 0.000000 2.466270 -1.575962 2.681815 19.543109 176.935094 -122.040099 3.217854 -1.871869 1.916428 168.040248 -17.672631 50.380630 2.656122 -1.528670 1.514485 144.232353 -25.806907 56.628480 2.020887 -1.154046 1.115144 0.000002 0.000004 0.000004 9.109415 -0.517840 2.259749 96.567899 -21.560932 24.098559 3.700046 0.000195 -0.000464 93.845665 -12.728790 13.623138 2.850049 0.000229 0.000200 91.864146 -9.053139 9.349989 2.774865 -0.000032 -0.000026 0.000001 -0.000000 -0.000000 9.533496 0.000193 -0.000074 90.312381 -22.689475 22.800862 3.700047 0.000192 -0.000363 93.290446 -11.405239 12.072129 2.950054 0.000214 -0.000201 94.214147 -9.402853 10.120625 2.952860 -0.000014 0.000062 -0.000001 -0.000001 -0.000001 9.104619 -0.042854 -1.865202 88.950749 -21.804382 21.419931 3.150049 0.000219 -0.000102 95.364522 -13.667839 14.998829 2.950018 0.000189 -0.000078 95.325125 -9.858056 10.816078 2.644325 0.000015 0.000057 0.000000 0.000001 -0.000000 8.077872 -0.486730 -3.806400 81.192159 -22.468455 19.854863 3.599999 0.000154 0.014569 79.380752 -19.209147 16.441169 2.100054 0.000175 0.007556 79.552347 -13.121546 11.346671 2.125499 -0.000030 0.007515 0.000001 0.000000 -0.000001 -8.207786 -6.751667 -1.599560 -0.077001 -0.000003 0.000080 -0.000002 -44.370110 0.345938 0.153719 -0.000000 -0.000000 0.000000 -44.423679 -3.043532 -0.076700 0.000000 -0.000002 -0.000006 -8.728667 10.710559 -0.000009 -0.000000 -0.000000 -0.000001 -0.000679 9.278123 0.000000 -0.000000 -0.000000 8.207792 -6.751710 -1.599556 -0.074518 -0.000003 0.000081 -0.000002 -44.370014 0.346960 0.148822 0.000002 0.000000 -0.000001 -44.423664 -3.044403 -0.074314 0.000000 -0.000002 -0.000004 -8.728671 10.710558 0.000007 -0.000000 -0.000000 0.000000 -0.000680 9.278137 -0.000000 0.000000 -0.000001 
